<?xml version="1.0" encoding="utf-8"?>
<!-- Generator: Adobe Illustrator 21.0.2, SVG Export Plug-In . SVG Version: 6.00 Build 0)  -->
<svg version="1.1" id="Layer_1" xmlns="http://www.w3.org/2000/svg" xmlns:xlink="http://www.w3.org/1999/xlink" x="0px" y="0px"
	 viewBox="0 0 221 133" style="enable-background:new 0 0 221 133;" xml:space="preserve">
<style type="text/css">
	.st0{fill:#FFFFFF;}
</style>
<g>
	<g>
		<path class="st0" d="M220.6,19.2c0,1.3-0.1,2.4-0.2,3.3c-0.1,1-0.3,1.8-0.6,2.4c-0.3,0.6-0.6,1.1-1,1.3c-0.4,0.3-0.8,0.4-1.3,0.4
			c-0.8,0-2.1-0.6-4-1.9c-1.9-1.2-4.3-2.6-7.4-4.1c-3.1-1.5-6.8-2.9-11.2-4.1s-9.5-1.9-15.4-1.9c-7.1,0-13.4,1.3-19,3.9
			c-5.6,2.6-10.4,6.2-14.3,10.7c-3.9,4.6-6.9,10-9,16.3s-3.1,13.1-3.1,20.4c0,8.2,1.1,15.5,3.4,21.8c2.3,6.4,5.4,11.7,9.5,16.1
			c4,4.4,8.8,7.7,14.4,9.9s11.7,3.4,18.4,3.4c4,0,8-0.5,12-1.4c4.1-1,7.8-2.4,11.3-4.3V74.1h-29.6c-1.1,0-2-0.6-2.5-1.7
			c-0.6-1.1-0.8-2.9-0.8-5.3c0-1.3,0.1-2.3,0.2-3.2c0.1-0.9,0.3-1.6,0.6-2.2s0.6-1,1-1.2c0.4-0.3,0.9-0.4,1.5-0.4h40.7
			c0.7,0,1.5,0.1,2.2,0.4c0.7,0.3,1.4,0.7,2,1.2c0.6,0.5,1.1,1.3,1.4,2.2c0.3,0.9,0.5,2,0.5,3.2v48.9c0,1.7-0.3,3.2-0.9,4.5
			c-0.6,1.3-1.9,2.4-3.8,3.3c-1.9,1-4.4,2-7.4,3.1c-3,1.1-6.2,2.1-9.4,2.9c-3.2,0.8-6.5,1.4-9.8,1.8c-3.3,0.4-6.6,0.6-9.8,0.6
			c-9.9,0-18.8-1.5-26.6-4.6c-7.8-3.1-14.4-7.5-19.8-13.1c-5.4-5.7-9.5-12.5-12.3-20.4c-2.8-7.9-4.3-16.8-4.3-26.6
			c0-10.2,1.5-19.4,4.6-27.7c3.1-8.3,7.4-15.3,13-21.1s12.3-10.3,20.1-13.5c7.8-3.2,16.5-4.8,26-4.8c4.9,0,9.5,0.4,13.8,1.3
			c4.3,0.8,8.1,1.8,11.4,3c3.3,1.1,6.1,2.4,8.4,3.7c2.3,1.3,3.8,2.4,4.7,3.3c0.9,0.8,1.5,1.8,1.8,3
			C220.4,15.5,220.6,17.1,220.6,19.2z"/>
	</g>
</g>
<g>
	<g>
		<path class="st0" d="M63.7,70.5c4.1-7.1,16.7-28.4,27.2-45.5C99.9,10.1,116,1,133.4,1l12.3,0c-26.7,11.5-60.5,92.6,4.6,132
			c-39.9-13.2-63.9-73.1-34.7-117.1c-4.2,3.1-9.9,9.5-14,15.7c-2.4,3.7-4.9,7.6-7.4,11.9c-2.5,4.3-5,8.7-7.6,13.4
			c-2.5,4.7-4.9,9.2-7.1,13.7c-2.2,4.5-4.2,8.7-6,12.8c-0.7,1.5-1.3,3-1.9,4.4c-1.6,3.8-5.2,6.3-9.3,6.3h0c-4.1,0-7.8-2.5-9.3-6.2
			c-0.6-1.4-1.2-2.9-1.9-4.4c-1.8-4.1-3.8-8.3-6-12.8c-2.2-4.5-4.6-9-7.1-13.7c-2.5-4.6-5-9.1-7.6-13.4c-2.5-4.3-5-8.2-7.4-11.9
			s-4.6-6.8-6.6-9.3c0.1,0.4,0,110.7,0,110.7H-0.1V1l11,0c5.9,0,11.5,2.7,15.2,7.3c0,0,0,0.1,0.1,0.1c2.2,2.8,29.1,50.2,35,62
			C61.7,71.4,63.1,71.5,63.7,70.5z"/>
	</g>
</g>
</svg>
