<?xml version="1.0" encoding="utf-8"?>
<!-- Generator: Adobe Illustrator 21.0.2, SVG Export Plug-In . SVG Version: 6.00 Build 0)  -->
<svg version="1.1" id="Layer_1" xmlns="http://www.w3.org/2000/svg" xmlns:xlink="http://www.w3.org/1999/xlink" x="0px" y="0px"
	 viewBox="0 0 1000 1000" style="enable-background:new 0 0 1000 1000;" xml:space="preserve">
<style type="text/css">
	.st0{fill:none;stroke:#FFFFFF;stroke-width:14;stroke-linecap:round;stroke-miterlimit:10;}
	.st1{fill:#FFFFFF;}
	.st2{fill:none;stroke:#FFFFFF;stroke-width:5;stroke-linecap:round;stroke-miterlimit:10;}
</style>
<circle cx="500.1" cy="500.1" r="500.1"/>
<g>
	<g>
		<path class="st0" d="M294.2,462.6c10.4-13.3,7.5-23.7,4.6-28.9c-0.6-1.2,0.6-1.7,1.2-1.2c20.2,10.4,40.4,10.4,60,0.6
			c5.2-0.6,9.2,4.6,6.9,9.2l-13.3,37c-34.6,90.6,55.4,48.5,118.4,15c49.7-26,56.6-57.2,39.8-64.1c-3.5-1.2-6.9-1.2-11-0.6
			c-85.5,17.3-35.8,169.8,14.4,66.4c0.6-0.6,1.2-0.6,1.2,0c1.7,67,114.3,31.2,107.4-53.1c5.8,29.4,2.3,65.8-4,90.6
			c-0.6,1.2,1.2,1.2,1.2,0c11-54.9,19.6-72.2,37.5-80.3c25.4-10.4,34.6,16.7,43.3,49.7c20.8,84.3,166.3-11,158.8-41
			c-8.1-38.1-78.5-20.2-77.4,25.4c2.9,59.5,60.6,77.4,147.2,25.4"/>
	</g>
	<path class="st0" d="M118.4,560.6c19.4-42.5,64.9-248.8,56.4-339.2c0-0.6,1.2-1.2,1.2,0c19.4,72.8,32.2,259.1,62.5,316.7
		c0.6,1.2,1.8,0.6,1.8-0.6c-17-80.7,23.1-231.8,75.8-311.3"/>
</g>
<g>
	<path class="st1" d="M408.6,682c11.1-1.7,30.7-2.6,39.2,3.4c1.7,1.7-1.7,3.4-6.8,2.6c-18.7-2.6-33.2,1.7-33.2,1.7
		C404.4,691.4,403.5,682.9,408.6,682z"/>
	<path class="st1" d="M402.7,669.2c-6-0.9-12.8-0.9-18.7-1.7c5.1-7.7,18.7-23.9,13.6-34.9c-1.7-4.3-6.8-4.3-9.4-0.9
		c-5.1,6-12.8,23-17.9,35.8c-3.4,0-6,0-9.4,0c-6.8,0-6.8,6.8-0.9,6.8c0,0,2.6-0.9,7.7-0.9v0.9c0,7.7-13.6,19.6-27.3,23.9
		c-1.7,0.9-2.6,0-1.7-1.7c4.3-14.5-6.8-17-7.7-23c-0.9-2.6,4.3-4.3,4.3-9.4c-0.9-6-4.3-9.4-11.1-8.5c-6.8,1.7-12.8,10.2-3.4,20.4
		c-7.7,11.1-16.2,19.6-27.3,23c-4.3,1.7-6.8,0-6-5.1c0-1.7,0.9-2.6,1.7-3.4c16.2-26.4,3.4-40.9-14.5-31.5
		c-12.8,6.8-20.4,25.6-22.2,40c-3.4,20.4,9.4,18.7,23,5.1c3.4-3.4,3.4-5.1,6.8-0.9c6.8,9.4,16.2,7.7,32.4-8.5
		c0.9-0.9,0.9-0.9,1.7-1.7c5.1-5.1,8.5-11.9,9.4-11.1c0.9-0.9,2.6,0.9,2.6,0.9c5.1,6,3.4,6.8,1.7,9.4c-5.1,11.1-0.9,17,7.7,14.5
		c9.4-4.3,18.7-8.5,25.6-14.5c0,7.7,0.9,17,4.3,20.4c2.6,3.4,8.5,3.4,5.1-2.6c-2.6-5.1-3.4-19.6,0.9-28.1l6-8.5
		c6.8,0,14.5,0,22.2,0.9C406.9,674.3,408.6,670.1,402.7,669.2z M278.3,687.1c-1.7-0.9-2.6-2.6-4.3-3.4c0-1.7-1.7-0.9-2.6,0
		c-0.9,5.1,0.9,8.5,4.3,9.4c-7.7,11.9-17.9,16.2-15.3,5.1c2.6-10.2,6.8-23.9,15.3-31.5c7.7-6.8,16.2-6,15.3,2.6
		c-1.7,6-5.1,11.9-10.2,17C280,687.1,279.1,687.1,278.3,687.1z M328.5,664.1c-0.9,1.7-1.7,2.6-3.4,3.4h-0.9c-1.7-1.7,0-3.4,2.6-5.1
		C327.7,662.4,328.5,663.3,328.5,664.1z M390.7,643.7c-1.7,5.1-5.1,11.9-8.5,15.3C383.1,653.9,386.5,647.1,390.7,643.7z"/>
	<g>
		<path class="st1" d="M452.1,708.4c-4.3,0.9-1.7,6.8,2.6,6c17-5.1,33.2-11.9,47.7-17.9c0.9,0,1.7-0.9,2.6-1.7
			c3.4-2.6,3.4-5.1,2.6-8.5c-0.9-2.6-6.8-5.1-6.8-5.1s-22.2-6.8-24.7-8.5c-6.8-3.4-6-7.7,1.7-13.6c14.5-9.4,24.7-2.6,11.1,0.9
			c-2.6,0.9-2.6,4.3,0.9,4.3c9.4-1.7,16.2-4.3,14.5-11.1c-4.3-9.4-16.2-7.7-33.2,3.4c-9.4,6-7.7,13.6-4.3,17.9
			c4.3,3.4,32.4,13.6,32.4,13.6c1.7,0.9,1.7,2.6-0.9,3.4C485.3,696.5,470,702.5,452.1,708.4z"/>
		<path class="st1" d="M607.1,690.5c1.7-9.4-6-10.2-7.7-2.6c-2.6,8.5-8.5,14.5-14.5,17c-1.7,0.9-2.6,0.9-4.3,0.9
			c-0.9,0-2.6-0.9-3.4-0.9c-2.6-1.7,0-5.1,8.5-15.3c4.3-5.1-0.9-14.5-7.7-10.2c-6,4.3-8.5,12.8-10.2,18.7
			c-9.4,9.4-33.2,19.6-26.4-9.4c0.9-5.1,2.6-9.4,3.4-14.5c6.8-3.4,14.5-6,24.7-8.5c11.9-2.6,10.2-4.3,6.8-5.1
			c-7.7-0.9-17.9,1.7-29,5.1c4.3-11.1,8.5-20.4,13.6-29c0.9-0.9,0.9-1.7,0.9-2.6c0-3.4-4.3-6-6.8-1.7c-6.8,11.9-11.1,23.9-14.5,35.8
			c-5.1,2.6-10.2,4.3-13.6,6.8c-8.5,4.3-5.1,12.8,2.6,7.7c0,0,2.6-1.7,7.7-4.3c-0.9,3.4-1.7,6.8-2.6,10.2
			c-3.4,28.1,13.6,31.5,34.9,18.7c4.3,8.5,12.8,10.2,27.3-1.7c0.9,4.3,2.6,6,6,6.8c0.9,0,2.6,0,1.7-1.7c-0.9-2.6-1.7-5.1-0.9-7.7
			L607.1,690.5z M579.9,686.3c0.9-0.9,1.7,0,1.7,0.9c-0.9,1.7-3.4,4.3-4.3,5.1C576.5,689.7,578.2,688,579.9,686.3z"/>
		<g>
			<path class="st1" d="M700.8,669.2c0,1.7-1.7,3.4-4.3,3.4c-0.9,0-4.3-2.6-4.3-5.1c0-1.7,0.9-5.1,4.3-4.3
				C700,663.3,700.8,666.7,700.8,669.2z"/>
			<path class="st1" d="M696.6,689.7c2.6-6.8-4.3-9.4-7.7-6c-1.7,1.7-4.3,6.8-6.8,11.1c-1.7,3.4-3.4,6-6,7.7
				c-4.3,3.4-8.5,3.4-13.6,3.4c-5.1-0.9-7.7-4.3-5.1-10.2c7.7-14.5,14.5-26.4,19.6-41.7c5.1-15.3-7.7-21.3-15.3-10.2
				c-0.9,0.9-0.9,1.7-1.7,3.4c-4.3,10.2-8.5,25.6-10.2,37.5c-3.4-9.4-19.6-11.1-27.3-0.9c-9.4,11.9-2.6,36.6,17,29.8
				c6-1.7,11.1-6.8,11.1-6.8c9.4,8.5,19.6,9.4,31.5,0c5.1,11.9,13.6,4.3,8.5,0c-3.4-1.7-3.4-4.3-0.9-8.5L696.6,689.7z M647.2,698.2
				c-1.7,3.4-4.3,6-8.5,7.7c-13.6,2.6-17-13.6-10.2-20.4c5.1-4.3,9.4-5.1,14.5-2.6l0,0c1.7,1.7,1.7,4.3,0.9,6
				c-0.9,2.6-2.6,2.6-3.4,3.4c-1.7,1.7,0,5.1,3.4,3.4c1.7-0.9,2.6-0.9,3.4-1.7c0.9-0.9,0.9-1.7,1.7-2.6
				C648,693.1,648,695.6,647.2,698.2z M665.9,649.6c4.3-7.7,6.8-4.3,5.1,2.6c-1.7,10.2-9.4,21.3-14.5,30.7
				C655.7,676.9,660.8,658.2,665.9,649.6z"/>
		</g>
		<path class="st1" d="M714.5,700.8c0.9-3.4-3.4-5.1-5.1-1.7s-0.9,6.8,1.7,9.4c1.7,2.6,4.3,3.4,7.7,4.3c6.8,1.7,13.6,0.9,19.6-4.3
			c7.7-6,11.1-14.5,9.4-23.9c-1.7-5.1-6.8-10.2-13.6-10.2c-11.1,0-17,7.7-18.7,19.6c0,4.3,3.4,4.3,4.3,1.7
			c1.7-8.5,8.5-14.5,13.6-13.6c1.7,0,4.3,1.7,6,2.6c1.7,2.6,2.6,6,0.9,11.1c-4.3,8.5-11.1,11.9-19.6,10.2
			C716.2,705.9,713.6,704.2,714.5,700.8z"/>
	</g>
</g>
<line class="st2" x1="46.7" y1="603.7" x2="951.7" y2="603.7"/>
</svg>
