<?xml version="1.0" encoding="utf-8"?>
<!-- Generator: Adobe Illustrator 21.0.2, SVG Export Plug-In . SVG Version: 6.00 Build 0)  -->
<svg version="1.1" id="Layer_1" xmlns="http://www.w3.org/2000/svg" xmlns:xlink="http://www.w3.org/1999/xlink" x="0px" y="0px"
	 viewBox="0 0 125.7 55" style="enable-background:new 0 0 125.7 55;" xml:space="preserve">
<style type="text/css">
	.st0{display:none;}
	.st1{display:inline;}
	.st2{fill:#FFFFFF;stroke:#000000;stroke-width:2;stroke-linecap:round;stroke-miterlimit:10;}
	.st3{fill:none;stroke:#FF0000;stroke-width:2.5;stroke-linecap:round;stroke-miterlimit:10;}
</style>
<g class="st0">
	<path class="st1" d="M130,69.1c-0.5,0.3-1,0.5-1.6-0.1c-0.7-0.6-1.5-1.3-2.7-0.6c0.1-0.5,0.1-1,0.2-1.4c-0.1,0.1-0.1,0.1-0.2,0.2
		c-0.3-0.4-0.7-0.7-1-1.1c-0.2-0.2-0.4-0.3-0.6-0.4c-0.9-0.5-2-0.7-2.1-1.9c0,0-0.4,0-0.6,0c-0.4-0.3-0.7-0.6-1.1-0.9
		c-1.1-0.9-2.2-2-3.5-2.8c-0.7-0.4-0.9-1.2-1.5-1.6c-0.3-0.2-0.7-0.2-1.2-0.3c0.2-0.8-0.5-0.6-0.9-0.3c-1,0.8-2.6,1-2.7,2.6
		l-1.7,1.5c-0.1,0.3-0.2,0.6-0.4,0.9c-0.2,0.4-0.5,0.7-0.8,1c0.1,0,0.2,0.2,0.4,0.3v0.1c-1.6,0.5-1,2.1-1.4,3.1
		c-0.9,1.8-0.6,1.8-0.8,4.2c-0.2,1.5,0.9,2.5,0.8,3.9c0,0.5,0.5,1,0.9,1.4c0.9,1,0.9,1.4-0.2,2c-0.8,0.4-1.6,0.8-2.4,1.1
		c-0.8,0.4-1.5,0.5-2-0.6c-0.1-0.3-0.5-0.5-0.8-0.7c-0.2-0.1-0.5-0.3-0.5-0.3c0.4-0.9-0.7-1.2-0.7-2c0-0.2-0.4-0.4-0.6-0.6
		c-0.2-0.3-0.4-0.5-0.5-0.8c-0.2-0.7-0.4-1.4-0.6-2.1c0-0.1-0.2-0.3-0.4-0.4c-0.3-0.2-0.7-0.4-1.3-0.8c-0.2,0.2-0.9,0.5-1.1,1
		c-0.7,2-2.7,2.8-3.7,4.5c-0.9,1.6-2.9,1.7-4.1,2.9c-0.2,0.2-0.6,0-0.7,0.2c-0.6,0.4-1.2,0.9-1.8,1.2c-1.3,0.7-2.6,1.5-3.9,2.2
		c-0.1,0.1-0.3,0.1-0.4,0.1c-1.6,0.3-3.1,0.8-4.7,0.8c-2.9,0-5.8,0-8.6-1.2c-1.7-0.7-2.9-1.9-4-3.1c-0.6-0.6-1.4-1-1.8-2
		c-0.9,0.9-1.8,1.6-2.5,2.5c-1.3,1.5-3,2-4.7,2.8c-2,0.9-4.1,0.9-6.2,0.8c-0.1,0-0.2,0-0.3,0c-1.4-0.5-2.7-1-4.1-1.5
		c0-0.1,0.1-0.4,0.3-0.9c-2,0.4-2.7-1.3-3.6-2.3c-0.9-1-1.5-2.6-1-4.3c-0.3,0.1-0.5,0.1-0.7,0.2c-0.4-0.7-0.5-1.4-0.1-2.2
		c0.2-0.5-0.1-1.5-0.5-1.9c-0.3-0.3-1.1-0.2-1.7-0.1c-1.6,0.2-3.2,0.5-4.7,0.8c-0.8,0.2-1.6,0.5-2.3,0.8c-1.1,0.4-2.1,0.7-3.2,1.1
		c-0.6,0.2-1.2,0.6-1.8,0.8c-0.7,0.2-1.5,0.4-2.3,0.5c-1.3,0.2-2.6,0.5-3.9,0.6c-1.7,0.1-3.4,0.2-5.1,0c-1.5-0.1-3-0.4-4.4-0.7
		c-0.9-0.2-1.7-0.8-2.6-1C6,74.1,5.9,72.7,5.1,72c-0.5-0.5-0.3-1.8-0.6-2.7c-0.3-1,0.3-1.8,0.3-2.6C5,63.3,7,60.5,7.7,57.3
		C8,55.7,8.9,54.4,9.5,53c0.2-0.4,0.2-0.8,0.3-1.2c0-0.3,0-0.6,0-1.2c-1.7-0.1-3.6-0.2-5.4-0.3c-1.3-0.1-2.7-0.1-4-0.2c-1,0-2,0-3,0
		c-1.1,0-2.2-0.1-3.2,0c-1.3,0.1-2.7,0.1-3.9-0.3c-0.9-0.3-1.9-0.6-2.3-1.7c-0.1-0.2-0.5-0.4-0.8-0.6c0.4-1.8,0.9-2,2.7-2.1
		c2.3-0.1,4.3,0.9,6.4,1c2.3,0.1,4.5,0.6,6.8-0.1c0.7-0.2,1.5,0,2.2,0c0.5,0,1,0.1,1.5,0c1-0.3,1.7,0.6,2.6,0.6c0.3,0,0.7,0.1,1,0.2
		c0.6,0.2,1.3,0.2,1.8,0.5c0.3,0.2,0.4,0.7,0.6,1.2c0.8,0.5,1.3,1.6,1,2.8c-0.5,2.1-1,4.3-1.5,6.4c0,0.1-0.1,0.3-0.2,0.4
		c-1.6,1.8-2.1,4-2.6,6.3c-0.2,0.8-0.5,1.6-0.7,2.4c-0.1,0.7-0.1,1.5,0.1,2.1c0.2,0.5,0.7,0.9,1.1,1.3c0.4,0.5,0.8,0.9,1.5,0.8
		c0.3,0,0.7,0.1,1,0.3c0.9,0.4,1.7,0.9,2.6,1.1c0.8,0.2,1.7,0.4,2.5,0.3s1.4,0.1,2,0.4c0.1,0,0.3-0.1,0.5-0.1
		c-0.2-0.3-0.3-0.4-0.4-0.7c0.6-0.5,1-1.2,2-0.8c0.1,0,0.3-0.1,0.5-0.2c0.9-0.8,2-0.8,3.1-0.9c0.5,0,1-1.1,1.3-0.1
		c1.1-0.3,2.1-0.5,3.1-0.8c0.4-0.1,0.8-0.2,1.1-0.3c0.6-0.2,2.8-0.5,3.6-0.6c0.4-0.1,0.8-0.5,1.3-0.7c1-0.4,2-0.7,3.1-1.1
		c1-0.4,1.4-1.2,1-2.2c-0.1-0.2-0.1-0.3-0.1-0.5c0.1-0.6,0.2-1.2,0.4-1.8c0.2-0.5,0.5-1,0.7-1.6c0.4-0.9,0.7-1.8,1.1-2.7
		c1-2.3,2.1-4.6,4.2-6.1c0.2-0.2,0.5-0.4,0.5-0.6c0.1-0.8,0.6-1.1,1.1-1.4c1.6-1.1,3.1-2.3,4.8-3.2c1.5-0.8,3-1.8,4.8-1.7
		c1.1,0.1,2.3-0.1,3.4,0c1.1,0.2,2.2,0.6,3.2,0.9c0.3,0.1,0.7,0.2,1.1,0.3c1.2,0.4,1.5,1.5,1.5,2.4c0,0.6,0.1,0.8,0.4,1.1
		c0.4,0.4,0.5,0.8,0.1,1.4c-0.3,0.5,0,1.3,0,2c0,0.5,0.1,0.9-0.1,1.4c-0.3,0.8-0.6,1.6-1,2.6c0.8,0.8-1.2,1.3-0.7,2.2
		c-0.3,0.1-0.7,0-0.8,0.2c-1.3,1.4-3.1,2-4.8,2.5c-1.6,0.4-2.8,1.4-4.1,2c-0.7,0.3-1.4,0.6-2.1,0.8c-1,0.4-2,0.8-3,1.3
		c-1.5,0.6-3.1,1.3-4.6,1.9c-1.1,0.4-1.7,1.2-1.7,2.4c0,1.3,0,2.6,0.9,3.8c0.2,0.3,0,0.9,0.1,1.3c0.3,1.1,1.3,1.5,2.1,2.2
		c1,0.9,2.1,1.5,3.3,2.1c2.3,1,5.6,0.5,7.2-1.8c0.7-1,1.8-1.8,2-2.9c0.3-1.5,1.7-2.6,1.5-4.2c0-0.4,0.4-0.8,0.7-1.2
		c0.1-0.2,0.3-0.4,0.3-0.5c-0.4-1.1,0.4-1.2,1.1-1.2c0.5,0,1.1,0,1.6,0s1.3,1.4,1.3,1.9c0,0.4,0.1,0.9,0.1,1.3c0.1,0,0.2,0,0.3,0
		c-0.2,0.1-0.3,0.2-0.5,0.4c-0.9,0.9-0.8,1.6,0,2.5c0.9,0.9,1.7,1.9,2.6,2.9c0.3,0.3,0.6,0.6,1,0.9c0.1,0.1,0.3,0.1,0.4,0.2
		c1.3,1.9,3.2,2.4,5.3,2.7c2.3,0.4,4.3-0.4,6.4-0.7c0.9-0.1,1.8-0.7,2.6-1.2c2.1-1.4,4.3-2.8,6.3-4.4c0.9-0.7,1.4-2,2.1-3
		c0.1-0.1,0.1-0.2,0.2-0.2c0.7-0.9,1.6-1.7,2-2.7c0.4-1.1,0.9-2.1,1.6-3c0.1-0.1-0.1-0.5-0.2-0.7c-0.6-1.4-0.5-1.8,0.7-2.8
		c-0.5-0.1-1-0.3-1.4-0.4c0-0.6,0-1.2,0-1.7c0-0.8-0.2-1.6-0.1-2.4c0.5-1.9,0-4,1.4-5.6c0.4-0.4,1-1,1.7-0.3c0.1,0.1,0.4,0,0.5,0.1
		c1.6,0.2,2.3,1.3,2,3c-0.2,1.1-0.1,2.2-0.2,3.3c0,0.2-0.2,0.4-0.2,0.7s0.1,0.7,0.3,0.8c0.8,0.3,0.9,0.8,0.4,1.4
		c-0.5,0.7-1.1,1.2,0.1,1.9c0.1,0.1,0.8,1.1,0.3,2c-0.3,0.6,0.3,1.5,0.4,2.3c0.1,0,0.3,0,0.4,0.1c0.4-0.9,0.9-1.9,1.3-2.8
		c0.4-1,0.6-2,1-2.9c0.3-0.6,0.8-1.1,1.2-1.6c1.1-1.6,2.5-2.9,3.9-4.2c0.9-0.9,1.7-1.8,3-2c2-0.2,3.9,0,5.6,0.9
		c0.6,0.3,1.1,0.7,1.6,1c0.6,0.7,1,1.3,1.6,1.9c0.9,0.9,1.9,1.8,2.8,2.6c0.2,0.2,0.6,0.2,0.9,0.4c0.9,0.7,1.7,1.6,2.6,2.2
		c1.2,0.9,2.2,2.1,3.8,2.4c-0.1,1,0.8,0.8,1.4,1c2.2,0.5,4.4,1.1,6.6,1.5c1.4,0.2,2.8,0.2,4.2,0.3c0.3,0,0.6-0.3,0.9-0.6
		c0.2-0.2,0.4-0.5,0.6-0.8c-0.9-0.7-2.3-0.9-2.8-2.2c-0.3-0.9-0.5-1.8-0.7-2.7c-0.3-1.2-0.7-2.4-0.7-3.6c0.1-1.4-0.4-2.8,0.5-4.1
		c0.5-0.8,1-1.8,0.6-2.8c-0.1-0.2,0.1-0.5,0.3-0.9c0.6,0,1-0.4,1.1-1.3c0.1-0.6,1-1.1,1.6-1.5c0.7-0.5,1.5-1,2.1-1.5
		c1.7-1.4,3.6-1.9,5.7-1.4c1.2,0.3,2.4,0.4,3.7,0.6c0.2,0,0.5,0.2,0.7,0.4c0.3,0.2,0.6,0.5,0.9,0.6c1.1,0.2,1.7,0.9,2.4,1.7
		c1.1,1.5,1.6,3.2,2.3,4.8c0.8,1.7-0.4,2.8-0.5,4.2c0,0.3-0.1,0.6-0.2,0.7c-0.2,0.4-0.5,0.8-0.5,1.2c-0.2,1.3-0.1,2.7-1.2,3.8
		c-0.6,0.6-0.9,1.6-1.4,2.3c-0.3,0.4-0.7,0.8-1.2,1.2c-0.7,0.5-1.4,0.9-2.4,1.6c1.2,0.2,2.1,0.6,3,0.6c2.7,0,5.4,0,8.2-0.2
		c2-0.1,3.9-0.5,5.9-0.9c1.9-0.4,3.7-0.9,5.5-1.5c0.5-0.2,1-0.5,1.5-0.7c0.9-0.3,1.7-0.6,2.6-0.8c2.1-0.4,4.2-0.7,6.2-1.1
		c0.8-0.2,1.6-0.7,2.4-1c1.7-0.6,3.5-0.9,5.1-1.7c0.9-0.4,1.6-0.3,2.3-0.1c0.3,0.1,0.6,0.2,1,0.3c-0.2,0.1-0.2,0.2-0.2,0.2
		c-0.7,1.4-2.2,1.5-3.4,2c-1,0.4-2.3,0.5-3.1,1.2c-1,0.8-2.3,1-3.4,1.5c-1.5,0.7-3.1,0.9-4.7,1.5c-1,0.4-1.8,1-2.8,1.4
		c-0.9,0.3-1.9,0.5-2.8,0.6c-0.7,0.1-1.2,0.1-1.9,0.6c-0.8,0.6-1.9,0.8-2.9,1.1c-1,0.3-2.1,0.5-3.2,0.8c-1.3,0.3-2.6,0.5-3.9,0.3
		c-0.9-0.1-1.8-0.5-2.9,0.5c-0.6,0.6-2.2,0.1-3.3,0.2c-0.2,0-0.4-0.2-0.5-0.1c-2.5,0.9-4.8-0.4-7.2-0.8c-0.7-0.1-2,0-2.6-1.1
		c-0.1-0.1-0.4-0.1-0.6-0.1c-1.1,0.3-2.1,0.8-3.2,0.9c-2.1,0.2-4,1.5-6.2,0.8c-0.9-0.3-1.8-0.2-2.8-0.3c-0.3,0-0.5-0.3-0.8-0.4
		c-0.7-0.1-1.4-0.2-2.1-0.3c-0.9-0.1-1.8,0.1-2.6-0.8c-0.5-0.5-1.5-0.6-2.3-0.8C130.5,69.5,130.3,69.3,130,69.1z M152,65.1
		c0.1,0.2,0.3,0.7,0.5,0.8c0.5,0.1,1-0.2,0.7-0.9c0,0,0.2-0.2,0.3-0.2c1.6-0.6,3-1.5,3.8-3.1c0.5-1.1,1.3-2,1.6-3.2
		c0.3-1.1,0.2-2.2-0.1-3.1c-0.4-1.1-0.4-2.2-1.3-3.1c-0.3-0.3-0.5-0.7-0.8-1.1c-0.5-0.7-0.9-1.6-2-1.7c-1.2,0-2.4-0.1-3.6,0
		c-0.6,0-1.2,0.3-1.7,0.6c-0.4,0.3-0.6,0.9-0.9,1.3c-0.5,0.5-1.2,1-1.4,1.6c-0.3,0.6-1.3,1.3-0.6,2c-0.3,0.6-0.7,1.2-0.6,1.7
		c0.3,2.3,0.8,4.6,2.5,6.4c0.3,0.3,0.3,0.8,0.5,1.1C149.9,64.4,150.9,64.8,152,65.1z M44.4,62.5c0.1,0.2,0.3,0.5,0.3,0.7
		c-0.1,1.2,0.8,1.1,1.5,1c0.3,0,0.5-0.5,0.8-0.5c1.4-0.3,2.9-0.4,4.3-0.7c1-0.3,2.4-0.1,2.8-1.7c0-0.1,0.3-0.2,0.5-0.3
		c0.4-0.2,0.8-0.3,1.2-0.5c1.6-1,3.1-2.1,4.7-3.1c1.2-0.8,1.7-1.7,1.2-3.3c-0.1-0.2,0.2-0.5,0.3-0.7c0.2-0.7,0.3-1.4,0.5-2.1
		c-0.1,0-0.2-0.1-0.3-0.1c-0.1,0.1-0.3,0.2-0.2,0.1c-0.8-0.9-1.6-1.7-2.4-2.6c-1.4-0.2-2.9-0.1-4.2,0.7c-1.9,1.3-3.9,2.6-5.6,4.2
		c-0.9,0.8-1.5,2.1-2.3,3.3c-0.3,0.4-1.1,0.9-1.2,1.6c-0.1,0.8-1.1,1.5-0.4,2.5c0,0-0.1,0.1-0.2,0.2C45.2,61.5,44.8,61.9,44.4,62.5z
		"/>
	<path class="st1" d="M-64,57.5c0.2-0.6,0.5-1.3,0.6-2c0.6-2.9,1-6,1.9-8.8c0.5-1.4,0.5-2.8,0.9-4.2s1.1-2.9,1.1-4.3
		c-0.1-1.9,0.9-3.5,1.2-5.2s1-3.4,1.1-5.2c0.1-1.5,1-3,1-4.3c0-1.5,1-2.8,0.4-4.3c-0.3-0.8,0.4-1.9,0.5-2.8c0.6-3.2,1.2-6.3,1.6-9.5
		c0.1-0.9-0.3-2-0.2-2.9c0.1-0.8,0.5-1.6,0.9-2.3s0.4-1.9-0.2-2.5c0.5-0.8,1-1.7,1.4-2.6c0.1-0.2-0.5-0.6-0.8-1
		c0.1-0.6,0.1-1.5,0.3-2.3c0.2-1.3,0.4-2.6,0.5-4c0.1-1.8,0.3-3.6,0.1-5.5c-0.2-1.7,0.1-3.5,0.1-5.3c0-1.4,0-2.9-0.1-4.3
		c-0.1-1.7-0.4-3.3-0.5-5c-0.1-0.8,0.4-1.4,1.2-1.7c1-0.4,1.4,0.4,1.8,1c1.1,2,1.6,4.3,1.8,6.5c0.1,1.3,0.2,2.6,0.3,3.9
		c0.1,0.4,0.4,0.8,0.5,1.2c0.3,2.5,0.5,5,0.8,7.5c0.2,2,0.6,3.9,0.9,5.9c0.2,1.1,0.3,2.2,0.5,3.2c0,0.1,0.1,0.2,0.1,0.3
		c1.1,1.3,0.9,3,0.7,4.3c-0.3,2.2,0.7,4.1,0.7,6.2C-43,9.7-43,12-42.6,14.1c0.1,0.8,0.3,1.8,0.9,2.8c0.6,0.9,0.2,2.4,0.3,3.6
		c0,0.2-0.2,0.6-0.1,0.7c0.8,1.1,0.4,2.2,0.4,3.3c0,0.9,0.5,1.9,0.6,2.8c0.2,1.5,0.2,3.1,0.4,4.6c0.2,1,0.6,2,0.8,3
		c0.3,1.6,0.8,3.2,0.8,4.9c0,1.4,1,2.3,1.2,3.5c0.2,1.3,0.2,2.7,0.2,4c0,0.3,0,0.5-0.3,0.8c0.3,0.5,0.6,1,0.9,1.6
		c0.1,0.1-0.3,0.4-0.2,0.6c0.2,1,0.4,1.9,0.7,2.8c0.1,0.3,0.6,0.5,0.9,0.8c-0.4,1-0.6,1.9,0.1,2.9c0.7,1,1.1,2.1,1.6,3.2
		c0.1,0.2-0.1,0.4,0,0.6c0.1,0.7,0.3,1.4,0.5,2c0.2,0,0.3-0.1,0.5-0.1c0-2-0.2-3.9,0.1-5.9c0.1-1.3,0.1-2.5,0-3.7
		c-0.1-1.3,0.4-2.6,0.5-3.9c0.3-3,0.5-6,0.9-9c0.2-1.6,0.7-3.2,1-4.8c0.3-1.7,0.5-3.4,0.8-5.2c0.3-1.7,0.7-3.5,1-5.2
		c0.4-1.8,0.8-3.5,1.2-5.3c0.1-0.5,0.2-0.9,0.4-1.4c0.7-1.8,1.5-3.5,1.1-5.5c0-0.2,0.2-0.5,0.2-0.7c0.6-2,1.2-4,1.9-6
		c0.6-1.8,1.3-3.6,2.1-5.4c0.8-2,1.7-3.9,2.5-5.9c0.3-0.8,0.4-1.6,0.6-2.4c0.1-0.3,0.3-0.6,0.5-0.9c1.4-1.7,2.3-3.6,2.6-5.8
		c0-0.3,0.4-0.5,0.6-0.8c0.7-1,1.5-2,2.2-3c1.1-1.5,2.1-3.1,3.2-4.7c0.8-1.1,1.6-2.2,2.5-3.2c0.8-0.9,0.9-0.9,2.1-0.7
		C-4.6-26-4.5-25.4-4.8-25c-0.4,0.7,0,1.6-1.1,2.1c-0.6,0.3-0.7,1.5-1.3,2.1c-0.9,0.9-0.4,2.2-1.2,3.2c-0.7,0.9-1.2,2.1-1.8,3.1
		c-0.7,1.2-1.4,2.4-2,3.6c-0.3,0.5-0.3,1.2-0.6,1.7c-0.5,0.9-1.2,1.8-1.6,2.7c-0.3,0.7-0.2,1.5-0.5,2.2c-0.8,2.1-1.9,4-2.5,6.1
		c-0.5,1.9-1.4,3.7-2,5.5c-0.5,1.6-0.9,3.3-1.3,4.9c-0.6,2.5-1,5-1.6,7.5c-0.2,1.1-0.7,2.1-1.1,3.2c-0.2,0.6-0.2,1.2-0.3,1.8
		c-0.1,0.8-0.3,1.6-0.5,2.4c-0.3,1.7-0.6,3.4-1,5.1c-0.2,1.1-0.7,2.1-0.9,3.1c-0.2,0.9-0.2,1.9-0.4,2.8c-0.2,1-0.6,2-0.8,3
		c-0.2,1.1-0.2,2.2-0.2,3.3c0,0.1,0.1,0.3,0.1,0.4c-0.1,1.7-0.4,3.4-0.4,5.1c-0.1,2.6,0,5.3-0.1,7.9c0,1-0.3,2.1-0.3,3.1
		c-0.1,1.1,0,2.1,0,3.2c0,0.5-0.1,1-0.1,1.6c0,0.9,0.2,1.7,0.2,2.6c0.1,1.4,0.2,2.9,0.3,4.3c0,0.3,0.2,0.7,0.2,1
		c0,0.6-0.1,1.3-0.2,1.9c0,0.4-0.2,0.8-0.1,1.1c0.9,1.4,0.8,2-0.4,3c-1.1,0.9-2,0.9-2.8-0.3c-0.6-1-1-2.2-1.6-3.2
		c-0.9-1.5-0.8-3.4-2-4.8c-0.1-0.1,0-0.4-0.1-0.7c-0.1-0.4,0-1-0.2-1.2c-0.9-0.7-0.9-1.8-1.2-2.7c-0.5-1.9-0.8-3.9-1.2-5.8
		c-0.1-0.3-0.5-0.5-0.5-0.5c-0.2-1-0.3-1.7-0.4-2.4c-0.1-0.4-0.2-0.9-0.4-1.3c-0.3-0.6,0-1.5-1-1.7c0,0,0-0.3,0-0.5
		c-0.2-1.2-0.5-2.4-0.7-3.5v-0.1c0.8-1.3-0.2-2.4-0.4-3.5c-0.5-2.6-1-5.1-1.5-7.7c-0.3-1.7-0.4-3.4-0.6-5.1
		c-0.2-1.3-0.2-2.7-0.6-3.9c-0.8-2.4-0.8-4.8-1.1-7.2c-0.1-1-0.1-2.1-0.3-3.1c-0.1-0.8-0.5-1.6-0.6-2.4c-0.2-1.4-0.3-2.9-0.5-4.3
		c-0.1-0.8-0.1-1.7-0.3-2.5c-0.7-2.5-0.8-5-0.8-7.5c0-1,0.2-2.1-0.6-3c-0.3-0.3-0.1-1-0.1-1.4C-47.9-2.3-48-4-48.2-5.6
		c-0.1-0.8-0.6-1.6-0.1-2.5c-0.1-0.1-0.3-0.1-0.4-0.2c-0.2,0.2-0.6,0.5-0.7,0.7c-0.1,0.8-0.2,1.7-0.2,2.6s-0.3,1.8-0.3,2.6
		c0,2.1-0.6,4.1-0.6,6.3c0.1,2,0.2,4.1-1,6c-0.1,0.2-0.1,0.4-0.1,0.6c0,0.9,0,1.9-0.1,2.8c0,0.2-0.3,0.4-0.4,0.6
		c-0.1,0.2-0.3,0.4-0.2,0.5c0.4,0.8,0,1.5-0.4,2.3c-0.1,0.3,0,0.7-0.1,1c-0.3,2.3-0.6,4.7-1.1,7c-0.2,1.3-0.8,2.5-1.1,3.7
		c-0.3,1.5-0.4,3.1-0.7,4.6c-0.5,2.8-1.1,5.6-1.6,8.4c-0.2,1.1,0,2.2-0.2,3.3c-0.2,1.3-0.7,2.5-1.1,3.7c-0.5,1.8-1.1,3.7-1.5,5.6
		c-0.5,2.2-0.9,4.5-1.3,6.7c-0.6,3.2-1.2,6.4-1.9,9.6c-0.8,3.1-1.8,6-2.7,9.1c-0.4,1.5-0.7,3-1,4.5c-0.2,0.7-0.3,1.3-0.4,2
		c-0.7,3.3-1.5,6.5-2.7,9.7c-0.3,0.8-0.3,1.6-0.5,2.4c-0.3,1.2-0.9,1.5-2.1,1.2c-1.7-0.4-1.6-0.7-1.4-2.3c0.2-1,0.7-1.8,1-2.8
		c0.2-0.7,0.2-1.5,0.4-2.2c0.6-2.2,1.3-4.3,1.8-6.4c0.4-1.9,0.6-3.9,0.9-5.8c0.2-1.2,0.6-2.4,1-3.6c0.7-2.1,1.6-4.1,2.4-6.2
		c0.1-0.4,0-0.9,0-1.3s0.1-0.8,0.2-1.3c0.7-2.8,1.5-5.7,2.2-8.5C-63.7,58.1-63.9,57.8-64,57.5z"/>
</g>
<g>
	<path class="st2" d="M27.3,37.3c1.6-2,1.1-3.6,0.7-4.4c-0.1-0.1,0.1-0.3,0.2-0.2c3.1,1.6,6.2,1.6,9.3,0.1c0.8-0.1,1.4,0.7,1.1,1.4
		l-2.1,5.8c-5.3,14,8.6,7.5,18.3,2.3c7.7-4,8.8-8.8,6.1-9.9c-0.5-0.2-1.1-0.2-1.7-0.1c-13.2,2.7-5.5,26.2,2.2,10.2
		c0.1-0.1,0.2-0.1,0.2,0c0.3,10.4,17.7,4.9,16.5-8.2c0.8,4.5,0.3,10.2-0.6,14c0,0.2,0.1,0.2,0.2,0c1.7-8.4,3.1-11.1,5.8-12.4
		c3.9-1.6,5.4,2.6,6.7,7.7c3.3,13,25.7-1.7,24.5-6.3c-1.2-5.9-12.1-3.1-11.9,4c0.4,9.2,8.6,11.4,21.5-0.9"/>
</g>
<path class="st3" d="M2,53.5C5,47.1,11.9,15.8,10.6,2c0-0.1,0.2-0.1,0.2,0c2.9,11,4.9,39.4,9.5,48.1c0.1,0.2,0.3,0.1,0.3-0.1
	C18,37.8,24.1,14.8,32.1,2.7"/>
</svg>
