<?xml version="1.0" encoding="utf-8"?>
<!-- Generator: Adobe Illustrator 21.0.2, SVG Export Plug-In . SVG Version: 6.00 Build 0)  -->
<svg version="1.1" id="Layer_1" xmlns="http://www.w3.org/2000/svg" xmlns:xlink="http://www.w3.org/1999/xlink" x="0px" y="0px"
	 viewBox="0 0 147.4 59.4" style="enable-background:new 0 0 147.4 59.4;" xml:space="preserve">
<style type="text/css">
	.st0{fill:none;stroke:#070707;stroke-width:2.5;stroke-linecap:round;stroke-miterlimit:10;}
	.st1{fill:none;stroke:#FF0000;stroke-width:3;stroke-linecap:round;stroke-miterlimit:10;}
</style>
<g>
	<path class="st0" d="M35.7,41.6c1.8-2.3,1.3-4.1,0.8-5c-0.1-0.2,0.1-0.3,0.2-0.2c3.5,1.8,7,1.8,10.4,0.1c0.9-0.1,1.6,0.8,1.2,1.6
		L46,44.5c-6,15.7,9.6,8.4,20.5,2.6c8.6-4.5,9.8-9.9,6.9-11.1c-0.6-0.2-1.2-0.2-1.9-0.1c-14.8,3-6.2,29.4,2.5,11.5
		c0.1-0.1,0.2-0.1,0.2,0C74.5,59,94,52.8,92.8,38.2c1,5.1,0.4,11.4-0.7,15.7c-0.1,0.2,0.2,0.2,0.2,0c1.9-9.5,3.4-12.5,6.5-13.9
		c4.4-1.8,6,2.9,7.5,8.6c3.6,14.6,28.8-1.9,27.5-7.1c-1.4-6.6-13.6-3.5-13.4,4.4c0.5,10.3,10.5,13.4,25.5,4.4"/>
</g>
<path class="st1" d="M1.8,57.8c3.2-7,10.7-41,9.3-55.9c0-0.1,0.2-0.2,0.2,0c3.2,12,5.3,42.7,10.3,52.2c0.1,0.2,0.3,0.1,0.3-0.1
	c-2.8-13.3,3.8-38.2,12.5-51.3"/>
</svg>
