<?xml version="1.0" encoding="utf-8"?>
<!-- Generator: Adobe Illustrator 21.0.2, SVG Export Plug-In . SVG Version: 6.00 Build 0)  -->
<svg version="1.1" id="Layer_1" xmlns="http://www.w3.org/2000/svg" xmlns:xlink="http://www.w3.org/1999/xlink" x="0px" y="0px"
	 viewBox="0 0 58.3 10.4" style="enable-background:new 0 0 58.3 10.4;" xml:space="preserve">
<style type="text/css">
	.st0{fill:#FFFFFF;}
</style>
<g>
	<path class="st0" d="M18.4,6.3C19.7,6.1,22,6,23,6.7c0.2,0.2-0.2,0.4-0.8,0.3c-2.2-0.3-3.9,0.2-3.9,0.2C17.9,7.4,17.8,6.4,18.4,6.3
		z"/>
	<path class="st0" d="M17.7,4.8c-0.7-0.1-1.5-0.1-2.2-0.2c0.6-0.9,2.2-2.8,1.6-4.1c-0.2-0.5-0.8-0.5-1.1-0.1
		c-0.6,0.7-1.5,2.7-2.1,4.2c-0.4,0-0.7,0-1.1,0c-0.8,0-0.8,0.8-0.1,0.8c0,0,0.3-0.1,0.9-0.1c0,0,0,0.1,0,0.1c0,0.9-1.6,2.3-3.2,2.8
		c-0.2,0.1-0.3,0-0.2-0.2C10.7,6.3,9.4,6,9.3,5.3C9.2,5,9.8,4.8,9.8,4.2C9.7,3.5,9.3,3.1,8.5,3.2C7.7,3.4,7,4.4,8.1,5.6
		C7.2,6.9,6.2,7.9,4.9,8.3c-0.5,0.2-0.8,0-0.7-0.6c0-0.2,0.1-0.3,0.2-0.4c1.9-3.1,0.4-4.8-1.7-3.7c-1.5,0.8-2.4,3-2.6,4.7
		c-0.4,2.4,1.1,2.2,2.7,0.6c0.4-0.4,0.4-0.6,0.8-0.1c0.8,1.1,1.9,0.9,3.8-1c0.1-0.1,0.1-0.1,0.2-0.2c0.6-0.6,1-1.4,1.1-1.3
		C8.8,6.2,9,6.4,9,6.4c0.6,0.7,0.4,0.8,0.2,1.1c-0.6,1.3-0.1,2,0.9,1.7c1.1-0.5,2.2-1,3-1.7c0,0.9,0.1,2,0.5,2.4
		c0.3,0.4,1,0.4,0.6-0.3c-0.3-0.6-0.4-2.3,0.1-3.3l0.7-1c0.8,0,1.7,0,2.6,0.1C18.2,5.4,18.4,4.9,17.7,4.8z M3.1,6.9
		C2.9,6.8,2.8,6.6,2.6,6.5C2.6,6.3,2.4,6.4,2.3,6.5C2.2,7.1,2.4,7.5,2.8,7.6C1.9,9,0.7,9.5,1,8.2C1.3,7,1.8,5.4,2.8,4.5
		c0.9-0.8,1.9-0.7,1.8,0.3C4.4,5.5,4,6.2,3.4,6.8C3.3,6.9,3.2,6.9,3.1,6.9z M9,4.2C8.9,4.4,8.8,4.5,8.6,4.6c0,0-0.1,0-0.1,0
		c-0.2-0.2,0-0.4,0.3-0.6C8.9,4,9,4.1,9,4.2z M16.3,1.8c-0.2,0.6-0.6,1.4-1,1.8C15.4,3,15.8,2.2,16.3,1.8z"/>
	<g>
		<path class="st0" d="M23.5,9.4c-0.5,0.1-0.2,0.8,0.3,0.7c2-0.6,3.9-1.4,5.6-2.1c0.1,0,0.2-0.1,0.3-0.2c0.4-0.3,0.4-0.6,0.3-1
			c-0.1-0.3-0.8-0.6-0.8-0.6s-2.6-0.8-2.9-1c-0.8-0.4-0.7-0.9,0.2-1.6c1.7-1.1,2.9-0.3,1.3,0.1c-0.3,0.1-0.3,0.5,0.1,0.5
			c1.1-0.2,1.9-0.5,1.7-1.3c-0.5-1.1-1.9-0.9-3.9,0.4c-1.1,0.7-0.9,1.6-0.5,2.1C25.7,5.8,29,7,29,7c0.2,0.1,0.2,0.3-0.1,0.4
			C27.4,8,25.6,8.7,23.5,9.4z"/>
		<path class="st0" d="M41.7,7.3C41.9,6.2,41,6.1,40.8,7c-0.3,1-1,1.7-1.7,2c-0.2,0.1-0.3,0.1-0.5,0.1c-0.1,0-0.3-0.1-0.4-0.1
			c-0.3-0.2,0-0.6,1-1.8c0.5-0.6-0.1-1.7-0.9-1.2c-0.7,0.5-1,1.5-1.2,2.2c-1.1,1.1-3.9,2.3-3.1-1.1c0.1-0.6,0.3-1.1,0.4-1.7
			c0.8-0.4,1.7-0.7,2.9-1c1.4-0.3,1.2-0.5,0.8-0.6c-0.9-0.1-2.1,0.2-3.4,0.6C35.2,3.1,35.7,2,36.3,1c0.1-0.1,0.1-0.2,0.1-0.3
			c0-0.4-0.5-0.7-0.8-0.2c-0.8,1.4-1.3,2.8-1.7,4.2c-0.6,0.3-1.2,0.5-1.6,0.8C31.3,6,31.7,7,32.6,6.4c0,0,0.3-0.2,0.9-0.5
			c-0.1,0.4-0.2,0.8-0.3,1.2c-0.4,3.3,1.6,3.7,4.1,2.2c0.5,1,1.5,1.2,3.2-0.2c0.1,0.5,0.3,0.7,0.7,0.8c0.1,0,0.3,0,0.2-0.2
			c-0.1-0.3-0.2-0.6-0.1-0.9L41.7,7.3z M38.5,6.8c0.1-0.1,0.2,0,0.2,0.1c-0.1,0.2-0.4,0.5-0.5,0.6C38.1,7.2,38.3,7,38.5,6.8z"/>
		<g>
			<path class="st0" d="M52.7,4.8c0,0.2-0.2,0.4-0.5,0.4c-0.1,0-0.5-0.3-0.5-0.6c0-0.2,0.1-0.6,0.5-0.5C52.6,4.1,52.7,4.5,52.7,4.8z
				"/>
			<path class="st0" d="M52.2,7.2c0.3-0.8-0.5-1.1-0.9-0.7c-0.2,0.2-0.5,0.8-0.8,1.3c-0.2,0.4-0.4,0.7-0.7,0.9
				c-0.5,0.4-1,0.4-1.6,0.4c-0.6-0.1-0.9-0.5-0.6-1.2c0.9-1.7,1.7-3.1,2.3-4.9c0.6-1.8-0.9-2.5-1.8-1.2C48,1.9,48,2,47.9,2.2
				c-0.5,1.2-1,3-1.2,4.4c-0.4-1.1-2.3-1.3-3.2-0.1c-1.1,1.4-0.3,4.3,2,3.5c0.7-0.2,1.3-0.8,1.3-0.8c1.1,1,2.3,1.1,3.7,0
				c0.6,1.4,1.6,0.5,1,0c-0.4-0.2-0.4-0.5-0.1-1L52.2,7.2z M46.4,8.2c-0.2,0.4-0.5,0.7-1,0.9c-1.6,0.3-2-1.6-1.2-2.4
				c0.6-0.5,1.1-0.6,1.7-0.3c0,0,0,0,0,0c0.2,0.2,0.2,0.5,0.1,0.7c-0.1,0.3-0.3,0.3-0.4,0.4c-0.2,0.2,0,0.6,0.4,0.4
				c0.2-0.1,0.3-0.1,0.4-0.2c0.1-0.1,0.1-0.2,0.2-0.3C46.5,7.6,46.5,7.9,46.4,8.2z M48.6,2.5c0.5-0.9,0.8-0.5,0.6,0.3
				C49,4,48.1,5.3,47.5,6.4C47.4,5.7,48,3.5,48.6,2.5z"/>
		</g>
		<path class="st0" d="M54.3,8.5c0.1-0.4-0.4-0.6-0.6-0.2c-0.2,0.4-0.1,0.8,0.2,1.1c0.2,0.3,0.5,0.4,0.9,0.5
			c0.8,0.2,1.6,0.1,2.3-0.5c0.9-0.7,1.3-1.7,1.1-2.8C58,6,57.4,5.4,56.6,5.4c-1.3,0-2,0.9-2.2,2.3c0,0.5,0.4,0.5,0.5,0.2
			c0.2-1,1-1.7,1.6-1.6c0.2,0,0.5,0.2,0.7,0.3c0.2,0.3,0.3,0.7,0.1,1.3c-0.5,1-1.3,1.4-2.3,1.2C54.5,9.1,54.2,8.9,54.3,8.5z"/>
	</g>
</g>
</svg>
